<svg width="14" height="14" viewBox="0 0 14 14" fill="none" xmlns="http://www.w3.org/2000/svg">
<path d="M7.30335 8.73834C4.91335 8.73834 2.68435 7.48767 1.48535 5.475C1.31002 5.181 1.41402 4.80567 1.71535 4.63533C2.01769 4.46533 2.40535 4.56633 2.57902 4.85867C3.55235 6.49267 5.36235 7.50767 7.30235 7.50767C9.24235 7.50767 11.052 6.49267 12.0254 4.85767C12.2007 4.56367 12.5867 4.46233 12.889 4.63267C12.9604 4.6716 13.0231 4.72449 13.0736 4.78819C13.1241 4.85188 13.1612 4.92509 13.1828 5.00344C13.2044 5.08178 13.21 5.16367 13.1992 5.24423C13.1885 5.32479 13.1617 5.40236 13.1204 5.47233C11.9227 7.48767 9.69369 8.73834 7.30369 8.73834H7.30335ZM4.02602 9.35034C3.91535 9.35034 3.80169 9.32234 3.70035 9.26267C3.40035 9.08701 3.30469 8.70934 3.48535 8.41934L4.18369 7.296C4.36435 7.005 4.75302 6.913 5.05135 7.08734C5.35135 7.263 5.44702 7.64067 5.26635 7.93067L4.56835 9.054C4.44902 9.244 4.24102 9.35067 4.02602 9.35067V9.35034ZM10.5467 9.35034C10.4386 9.35097 10.3321 9.32407 10.2373 9.27216C10.1425 9.22026 10.0624 9.14507 10.0047 9.05367L9.30635 7.931C9.26353 7.86202 9.23504 7.78512 9.22259 7.70489C9.21014 7.62466 9.21399 7.54274 9.2339 7.46402C9.25381 7.38531 9.28938 7.31142 9.33848 7.24675C9.38758 7.18209 9.44921 7.12799 9.51969 7.08767C9.81969 6.91167 10.2074 7.005 10.388 7.295L11.086 8.41767C11.1288 8.48665 11.1573 8.56355 11.1698 8.64378C11.1822 8.72402 11.1784 8.80594 11.1585 8.88465C11.1386 8.96336 11.103 9.03726 11.0539 9.10192C11.0048 9.16658 10.9432 9.22069 10.8727 9.261C10.7714 9.321 10.6577 9.35034 10.5467 9.35034ZM7.30335 10.15C6.95435 10.15 6.67102 9.87467 6.67102 9.53534V8.12367C6.67102 7.78467 6.95435 7.509 7.30369 7.509C7.65269 7.509 7.93602 7.78467 7.93602 8.12367V9.53534C7.93602 9.87467 7.65269 10.15 7.30369 10.15H7.30335Z" fill="black" fill-opacity="0.6"/>
</svg>
