<svg width="14" height="14" viewBox="0 0 14 14" fill="none" xmlns="http://www.w3.org/2000/svg">
<path d="M5.25 7.875H4.375V7H5.25V7.875ZM5.25 5.25H4.375V6.125H5.25V5.25ZM5.25 3.5H4.375V4.375H5.25V3.5ZM5.25 1.75H4.375V2.625H5.25V1.75ZM12.25 0.875V11.375C12.25 11.8563 11.8563 12.25 11.375 12.25H7V14L5.6875 12.6875L4.375 14V12.25H2.625C2.14375 12.25 1.75 11.8563 1.75 11.375V0.875C1.75 0.39375 2.14375 0 2.625 0H11.375C11.8563 0 12.25 0.39375 12.25 0.875ZM11.375 9.625H2.625V11.375H4.375V10.5H7V11.375H11.375V9.625ZM11.375 0.875H3.5V8.75H11.375V0.875Z" fill="black" fill-opacity="0.6"/>
</svg>
