<svg width="14" height="14" viewBox="0 0 14 14" fill="none" xmlns="http://www.w3.org/2000/svg">
<path d="M8.82112 1.33636C10.9944 1.33636 12.7842 3.11818 12.7842 5.28182C12.7842 7.44545 10.9944 9.22727 8.82112 9.22727C8.30975 9.22727 7.79838 9.1 7.35093 8.97273L6.20035 10.1182H5.30546V11.4545H3.96311V12.7909H1.34234V10.1818L4.98585 6.36364C4.85801 5.98182 4.79409 5.6 4.79409 5.21818C4.85801 3.05455 6.58388 1.33636 8.82112 1.33636V1.33636ZM8.82112 0C5.88075 0 3.51566 2.35455 3.51566 5.28182C3.51566 5.53636 3.51566 5.79091 3.57959 5.98182L0.191763 9.35455C0.0639212 9.41818 0 9.60909 0 9.8V13.3636C0 13.7455 0.319606 14 0.639212 14H4.60232C4.98585 14 5.24154 13.6818 5.24154 13.3636V12.7273H5.88075C6.26427 12.7273 6.51996 12.4091 6.51996 12.0909V11.4545L7.60662 10.3727C7.99015 10.4364 8.30975 10.5 8.69328 10.5C11.6337 10.5 13.9987 8.14545 13.9987 5.21818C14.0627 2.35455 11.6976 0 8.82112 0V0ZM8.82112 3.94546C8.82112 4.64546 9.39641 5.28182 10.1635 5.28182C10.9305 5.28182 11.5058 4.70909 11.5058 3.94546C11.5058 3.18182 10.8666 2.60909 10.0995 2.60909C9.33249 2.60909 8.82112 3.18182 8.82112 3.94546V3.94546Z" fill="black" fill-opacity="0.6"/>
</svg>
