<?xml version="1.0" standalone="no"?><!DOCTYPE svg PUBLIC "-//W3C//DTD SVG 1.1//EN" "http://www.w3.org/Graphics/SVG/1.1/DTD/svg11.dtd"><svg t="1610437195915" class="icon" viewBox="0 0 1024 1024" version="1.1" xmlns="http://www.w3.org/2000/svg" p-id="2673" xmlns:xlink="http://www.w3.org/1999/xlink" width="200" height="200"><defs><style type="text/css"></style></defs><path d="M510.065778 934.724267c-233.563022 0-424.658489-191.095467-424.658489-424.658489 0-233.563022 191.095467-424.658489 424.658489-424.658489 60.16 0 120.32 12.384711 175.172266 37.154133 17.692444 8.851911 26.538667 28.3136 17.692445 46.006045-8.846222 17.692444-28.3136 26.544356-46.006045 17.692444-47.775289-19.456-95.544889-30.077156-146.858666-30.077155-194.633956 0-353.883022 159.249067-353.883022 353.883022 0 194.633956 159.249067 353.883022 353.883022 353.883022 194.633956 0 353.883022-159.249067 353.883022-353.883022 0-67.242667-17.692444-130.935467-53.083022-187.562667-10.621156-10.609778-15.928889-10.609778-19.467378-10.609778-23.000178 3.538489-56.621511 47.7696-72.544711 81.390934l-176.941511 320.261689c-7.076978 10.615467-17.692444 17.692444-30.077156 17.692444s-24.775111-7.076978-30.082844-17.692444L304.810667 395.053511c-8.846222-17.692444-3.538489-38.929067 14.159644-47.775289 17.692444-8.846222 38.923378-3.538489 47.7696 14.153956l143.325867 261.876622 145.089422-261.876622c8.846222-17.692444 58.390756-109.698844 127.396978-118.550756 21.236622-1.763556 53.083022 1.769244 83.165866 37.159822l3.538489 3.538489c42.461867 67.242667 65.467733 145.089422 65.467734 226.486045 0 233.563022-191.095467 424.658489-424.658489 424.658489z" p-id="2674"></path></svg>