<svg width="16" height="16" viewBox="0 0 16 16" fill="none" xmlns="http://www.w3.org/2000/svg">
<path d="M7.99999 4.8C10.728 4.8 12.8 6.936 12.8 8C12.8 9.064 10.728 11.2 7.99999 11.2C5.27199 11.2 3.19999 9.064 3.19999 8C3.19999 6.936 5.27199 4.8 7.99999 4.8ZM7.99999 4C4.90399 4 2.39999 6.384 2.39999 8C2.39999 9.616 4.90399 12 7.99999 12C11.096 12 13.6 9.616 13.6 8C13.6 6.384 11.096 4 7.99999 4Z" fill="black"/>
<path d="M8 6.8C8.664 6.8 9.2 7.336 9.2 8C9.2 8.664 8.664 9.2 8 9.2C7.336 9.2 6.8 8.664 6.8 8C6.8 7.336 7.336 6.8 8 6.8ZM8 6C7.46957 6 6.96086 6.21071 6.58579 6.58579C6.21071 6.96086 6 7.46957 6 8C6 8.53043 6.21071 9.03914 6.58579 9.41421C6.96086 9.78929 7.46957 10 8 10C8.53043 10 9.03914 9.78929 9.41421 9.41421C9.78929 9.03914 10 8.53043 10 8C10 7.46957 9.78929 6.96086 9.41421 6.58579C9.03914 6.21071 8.53043 6 8 6Z" fill="black"/>
</svg>
