<svg width="40" height="40" viewBox="0 0 40 40" fill="none" xmlns="http://www.w3.org/2000/svg">
<path d="M20.5406 28.6726C18.83 28.6726 17.1579 28.1743 15.7356 27.2408C14.3134 26.3073 13.2048 24.9805 12.5502 23.4281C11.8956 21.8758 11.7244 20.1676 12.0581 18.5196C12.3918 16.8716 13.2155 15.3578 14.425 14.1697C15.6346 12.9816 17.1756 12.1725 18.8533 11.8447C20.531 11.5169 22.2699 11.6851 23.8502 12.3281C25.4306 12.9711 26.7813 14.06 27.7316 15.4571C28.682 16.8542 29.1892 18.4967 29.1892 20.177C29.1866 22.4294 28.2745 24.5888 26.6532 26.1814C25.0318 27.7741 22.8335 28.67 20.5406 28.6726ZM20.5406 13.0974C19.1151 13.0974 17.7217 13.5126 16.5364 14.2905C15.3512 15.0684 14.4275 16.1741 13.882 17.4677C13.3365 18.7614 13.1937 20.1849 13.4718 21.5582C13.7499 22.9315 14.4363 24.193 15.4443 25.1831C16.4522 26.1732 17.7364 26.8474 19.1345 27.1206C20.5326 27.3938 21.9817 27.2536 23.2986 26.7177C24.6156 26.1819 25.7412 25.2745 26.5331 24.1102C27.3251 22.946 27.7478 21.5772 27.7478 20.177C27.7456 18.3 26.9856 16.5005 25.6344 15.1733C24.2833 13.846 22.4514 13.0995 20.5406 13.0974Z" fill="#212121"/>
<path d="M20.2567 9.55752C20.0656 9.55751 19.8823 9.48292 19.7471 9.35015C19.6119 9.21738 19.536 9.03731 19.536 8.84955V0.707962C19.536 0.520199 19.6119 0.340125 19.7471 0.207356C19.8823 0.0745873 20.0656 0 20.2567 0C20.4479 0 20.6312 0.0745873 20.7663 0.207356C20.9015 0.340125 20.9774 0.520199 20.9774 0.707962V8.84956C20.9774 9.03732 20.9015 9.21739 20.7663 9.35015C20.6312 9.48292 20.4479 9.55751 20.2567 9.55752Z" fill="#212121"/>
<path d="M9.009 20.6063H0.720716C0.529569 20.6063 0.346254 20.5318 0.211093 20.399C0.0759312 20.2662 0 20.0861 0 19.8984C0 19.7106 0.0759312 19.5305 0.211093 19.3978C0.346254 19.265 0.529569 19.1904 0.720716 19.1904H9.00901C9.20016 19.1904 9.38347 19.265 9.51863 19.3978C9.6538 19.5305 9.72973 19.7106 9.72973 19.8984C9.72973 20.0861 9.6538 20.2662 9.51863 20.399C9.38347 20.5318 9.20016 20.6063 9.00901 20.6063H9.009Z" fill="#212121"/>
<path d="M39.2793 20.6063H30.991C30.7998 20.6063 30.6165 20.5318 30.4814 20.399C30.3462 20.2662 30.2703 20.0861 30.2703 19.8984C30.2703 19.7106 30.3462 19.5305 30.4814 19.3978C30.6165 19.265 30.7998 19.1904 30.991 19.1904H39.2793C39.4704 19.1904 39.6537 19.265 39.7889 19.3978C39.9241 19.5305 40 19.7106 40 19.8984C40 20.0861 39.9241 20.2662 39.7889 20.399C39.6537 20.5318 39.4704 20.6063 39.2793 20.6063Z" fill="#212121"/>
<path d="M30.7633 12.8654C30.6198 12.8654 30.4796 12.8233 30.3606 12.7446C30.2416 12.6658 30.1492 12.554 30.0953 12.4234C30.0414 12.2928 30.0284 12.1493 30.058 12.0114C30.0876 11.8735 30.1585 11.7474 30.2615 11.6493L33.7324 8.34139C33.8003 8.27647 33.8805 8.22534 33.9686 8.19093C34.0566 8.15651 34.1507 8.13948 34.2454 8.14081C34.3402 8.14215 34.4337 8.16182 34.5207 8.1987C34.6077 8.23559 34.6864 8.28896 34.7524 8.35576C34.8184 8.42257 34.8703 8.5015 34.9052 8.58803C34.9401 8.67457 34.9573 8.76701 34.9557 8.86007C34.9542 8.95313 34.934 9.04499 34.8963 9.13038C34.8586 9.21577 34.8042 9.29302 34.7361 9.35771L31.2651 12.6656C31.1308 12.794 30.9507 12.8657 30.7633 12.8654V12.8654Z" fill="#212121"/>
<path d="M9.59702 12.8654C9.40962 12.8656 9.22953 12.7939 9.0952 12.6656L5.62426 9.35771C5.55613 9.29302 5.50167 9.21577 5.46398 9.13038C5.42628 9.04499 5.40609 8.95313 5.40457 8.86007C5.40305 8.76701 5.42023 8.67457 5.45511 8.58803C5.49 8.5015 5.54192 8.42257 5.60789 8.35576C5.67386 8.28896 5.7526 8.23559 5.83959 8.1987C5.92659 8.16182 6.02013 8.14215 6.11488 8.14081C6.20962 8.13948 6.3037 8.15651 6.39173 8.19093C6.47976 8.22534 6.56002 8.27647 6.62792 8.34139L10.0988 11.6493C10.2018 11.7474 10.2727 11.8735 10.3023 12.0114C10.3319 12.1493 10.3189 12.2928 10.265 12.4234C10.2111 12.554 10.1187 12.6658 9.99971 12.7446C9.88072 12.8233 9.7405 12.8654 9.59702 12.8654V12.8654Z" fill="#212121"/>
<path d="M6.84682 32.2124C6.70519 32.2123 6.56671 32.1713 6.44867 32.0944C6.33063 32.0175 6.23827 31.9082 6.1831 31.7801C6.12794 31.6519 6.11242 31.5107 6.13849 31.3739C6.16456 31.2372 6.23106 31.111 6.32968 31.0111L9.80063 27.5C9.93386 27.3655 10.116 27.2884 10.3071 27.2857C10.4981 27.283 10.6824 27.355 10.8195 27.4857C10.9566 27.6165 11.0352 27.7954 11.0381 27.983C11.041 28.1707 10.9679 28.3518 10.8349 28.4866L7.36397 31.9977C7.29681 32.0657 7.21642 32.1197 7.12758 32.1566C7.03875 32.1935 6.94327 32.2125 6.84682 32.2124V32.2124Z" fill="#212121"/>
<path d="M34.955 32.9204C34.8588 32.9205 34.7636 32.9017 34.675 32.865C34.5864 32.8283 34.5062 32.7745 34.4392 32.7067L30.2476 28.4876C30.1813 28.4211 30.1291 28.3425 30.0938 28.2561C30.0585 28.1698 30.0409 28.0774 30.042 27.9844C30.0431 27.8914 30.0629 27.7995 30.1002 27.7139C30.1375 27.6284 30.1915 27.5509 30.2593 27.486C30.3271 27.421 30.4073 27.3698 30.4953 27.3353C30.5832 27.3007 30.6772 27.2836 30.7719 27.2848C30.8666 27.286 30.9602 27.3055 31.0472 27.3423C31.1342 27.379 31.213 27.4323 31.279 27.499L35.4707 31.7181C35.5698 31.8177 35.6367 31.9439 35.6631 32.0807C35.6895 32.2176 35.6742 32.359 35.6192 32.4874C35.5641 32.6158 35.4717 32.7253 35.3536 32.8023C35.2354 32.8793 35.0968 32.9204 34.955 32.9204V32.9204Z" fill="#212121"/>
<path d="M20.2567 40C20.0656 40 19.8823 39.9254 19.7471 39.7926C19.6119 39.6599 19.536 39.4798 19.536 39.292V31.1504C19.536 31.0575 19.5546 30.9654 19.5909 30.8795C19.6271 30.7936 19.6802 30.7156 19.7471 30.6498C19.814 30.5841 19.8935 30.5319 19.9809 30.4964C20.0684 30.4608 20.1621 30.4425 20.2567 30.4425C20.3514 30.4425 20.4451 30.4608 20.5325 30.4964C20.62 30.5319 20.6994 30.5841 20.7663 30.6498C20.8333 30.7156 20.8864 30.7936 20.9226 30.8795C20.9588 30.9654 20.9774 31.0575 20.9774 31.1504V39.292C20.9774 39.4798 20.9015 39.6599 20.7663 39.7926C20.6312 39.9254 20.4479 40 20.2567 40V40Z" fill="#212121"/>
</svg>
