<svg width="40" height="40" viewBox="0 0 40 40" fill="none" xmlns="http://www.w3.org/2000/svg">
<path d="M14.4 34V32.488H15.228C16.02 32.488 16.704 32.356 17.28 32.092C17.88 31.804 18.18 31.132 18.18 30.076V10.096H14.724C13.668 10.096 12.936 10.396 12.528 10.996C12.12 11.572 11.868 12.256 11.772 13.048L11.592 14.596H9.72L9.9 8.296H30.168L30.348 14.596H28.476L28.296 13.048C28.2 12.256 27.948 11.572 27.54 10.996C27.132 10.396 26.388 10.096 25.308 10.096H21.816V29.896C21.816 31.024 22.104 31.744 22.68 32.056C23.256 32.344 23.952 32.488 24.768 32.488H25.596V34H14.4Z" fill="#212121"/>
</svg>
